<svg><g class="legendNew_sb" id="legend_box" transform="translate(350,-300)" height="600px"><g class="legendCells"><g class="cell" transform="translate(0, 0)" style="opacity: 1;"><text class="label" transform="translate( 25, 12.5)">TEXT</text></g><g class="cell" transform="translate(0, 15)" style="opacity: 1;"><rect class="swatch" height="15" width="15" style="fill: rgb(31, 119, 180);"></rect><text class="label" transform="translate( 25, 12.5)"> Paving blocks (FU)</text></g><g class="cell" transform="translate(0, 32)" style="opacity: 1;"><text class="label" transform="translate( 25, 12.5)">TEXT</text></g><g class="cell" transform="translate(0, 47)" style="opacity: 1;"><rect class="swatch" height="15" width="15" style="fill: rgb(174, 199, 232);"></rect><text class="label" transform="translate( 25, 12.5)"> Use Phase</text></g><g class="cell" transform="translate(0, 64)" style="opacity: 1;"><text class="label" transform="translate( 25, 12.5)">TEXT</text></g><g class="cell" transform="translate(0, 79)" style="opacity: 1;"><rect class="swatch" height="15" width="15" style="fill: rgb(255, 127, 14);"></rect><text class="label" transform="translate( 25, 12.5)"> Block production</text></g><g class="cell" transform="translate(0, 96)" style="opacity: 1;"><text class="label" transform="translate( 25, 12.5)">TEXT</text></g><g class="cell" transform="translate(0, 111)" style="opacity: 1;"><rect class="swatch" height="15" width="15" style="fill: rgb(255, 187, 120);"></rect><text class="label" transform="translate( 25, 12.5)"> Precursor Firing</text></g><g class="cell" transform="translate(0, 128)" style="opacity: 1;"><rect class="swatch" height="15" width="15" style="fill: rgb(44, 160, 44);"></rect><text class="label" transform="translate( 25, 12.5)"> Activating solution mix</text></g><g class="cell" transform="translate(0, 145)" style="opacity: 1;"><text class="label" transform="translate( 25, 12.5)">TEXT</text></g><g class="cell" transform="translate(0, 160)" style="opacity: 1;"><rect class="swatch" height="15" width="15" style="fill: rgb(152, 223, 138);"></rect><text class="label" transform="translate( 25, 12.5)"> Firing Energy</text></g><g class="cell" transform="translate(0, 177)" style="opacity: 1;"><rect class="swatch" height="15" width="15" style="fill: rgb(214, 39, 40);"></rect><text class="label" transform="translate( 25, 12.5)"> Carbon dioxide, from precursor firing</text></g><g class="cell" transform="translate(0, 194)" style="opacity: 1;"><rect class="swatch" height="15" width="15" style="fill: rgb(255, 152, 150);"></rect><text class="label" transform="translate( 25, 12.5)"> Electricity [IAI EU27]</text></g><g class="cell" transform="translate(0, 211)" style="opacity: 1;"><rect class="swatch" height="15" width="15" style="fill: rgb(148, 103, 189);"></rect><text class="label" transform="translate( 25, 12.5)"> Diesel</text></g><g class="cell" transform="translate(0, 228)" style="opacity: 1;"><rect class="swatch" height="15" width="15" style="fill: rgb(197, 176, 213);"></rect><text class="label" transform="translate( 25, 12.5)"> Carbon dioxide from diesel combustion (on site vehicles)</text></g><g class="cell" transform="translate(0, 245)" style="opacity: 1;"><rect class="swatch" height="15" width="15" style="fill: rgb(140, 86, 75);"></rect><text class="label" transform="translate( 25, 12.5)"> Potassium silicate production</text></g><g class="cell" transform="translate(0, 262)" style="opacity: 1;"><rect class="swatch" height="15" width="15" style="fill: rgb(196, 156, 148);"></rect><text class="label" transform="translate( 25, 12.5)"> Water</text></g><g class="cell" transform="translate(0, 279)" style="opacity: 1;"><rect class="swatch" height="15" width="15" style="fill: rgb(227, 119, 194);"></rect><text class="label" transform="translate( 25, 12.5)"> Transport, lorry</text></g><g class="cell" transform="translate(0, 296)" style="opacity: 1;"><text class="label" transform="translate( 25, 12.5)">TEXT</text></g><g class="cell" transform="translate(0, 311)" style="opacity: 1;"><rect class="swatch" height="15" width="15" style="fill: rgb(247, 182, 210);"></rect><text class="label" transform="translate( 25, 12.5)"> Natural Gas [GR]</text></g><g class="cell" transform="translate(0, 328)" style="opacity: 1;"><rect class="swatch" height="15" width="15" style="fill: rgb(127, 127, 127);"></rect><text class="label" transform="translate( 25, 12.5)"> Light fuel oil</text></g><g class="cell" transform="translate(0, 345)" style="opacity: 1;"><rect class="swatch" height="15" width="15" style="fill: rgb(199, 199, 199);"></rect><text class="label" transform="translate( 25, 12.5)"> Heavy fuel oil</text></g><g class="cell" transform="translate(0, 362)" style="opacity: 1;"><rect class="swatch" height="15" width="15" style="fill: rgb(188, 189, 34);"></rect><text class="label" transform="translate( 25, 12.5)"> Hard coal [WEU]</text></g><g class="cell" transform="translate(0, 379)" style="opacity: 1;"><rect class="swatch" height="15" width="15" style="fill: rgb(219, 219, 141);"></rect><text class="label" transform="translate( 25, 12.5)"> Petroleum coke</text></g><g class="cell" transform="translate(0, 396)" style="opacity: 1;"><rect class="swatch" height="15" width="15" style="fill: rgb(23, 190, 207);"></rect><text class="label" transform="translate( 25, 12.5)"> Carbon dioxide, from fuel combustion</text></g><g class="cell" transform="translate(0, 413)" style="opacity: 1;"><rect class="swatch" height="15" width="15" style="fill: rgb(158, 218, 229);"></rect><text class="label" transform="translate( 25, 12.5)"> Transport, lorry</text></g><g class="cell" transform="translate(0, 430)" style="opacity: 1;"><rect class="swatch" height="15" width="15" style="fill: rgb(228, 26, 28);"></rect><text class="label" transform="translate( 25, 12.5)"> Potassium Hydroxide</text></g><g class="cell" transform="translate(0, 447)" style="opacity: 1;"><rect class="swatch" height="15" width="15" style="fill: rgb(55, 126, 184);"></rect><text class="label" transform="translate( 25, 12.5)"> Silica sand</text></g><g class="cell" transform="translate(0, 464)" style="opacity: 1;"><rect class="swatch" height="15" width="15" style="fill: rgb(77, 175, 74);"></rect><text class="label" transform="translate( 25, 12.5)"> Steam</text></g><g class="cell" transform="translate(0, 481)" style="opacity: 1;"><rect class="swatch" height="15" width="15" style="fill: rgb(152, 78, 163);"></rect><text class="label" transform="translate( 25, 12.5)"> Additives</text></g><g class="cell" transform="translate(0, 498)" style="opacity: 1;"><rect class="swatch" height="15" width="15" style="fill: rgb(255, 127, 0);"></rect><text class="label" transform="translate( 25, 12.5)"> Heat [RER]</text></g><g class="cell" transform="translate(0, 515)" style="opacity: 1;"><rect class="swatch" height="15" width="15" style="fill: rgb(255, 255, 51);"></rect><text class="label" transform="translate( 25, 12.5)"> Heat, natural gas [RER]</text></g><g class="cell" transform="translate(0, 532)" style="opacity: 1;"><rect class="swatch" height="15" width="15" style="fill: rgb(166, 86, 40);"></rect><text class="label" transform="translate( 25, 12.5)"> Electricity [GR]</text></g><g class="cell" transform="translate(0, 549)" style="opacity: 1;"><rect class="swatch" height="15" width="15" style="fill: rgb(247, 129, 191);"></rect><text class="label" transform="translate( 25, 12.5)"> Inert waste (disposal)</text></g><g class="cell" transform="translate(0, 566)" style="opacity: 1;"><rect class="swatch" height="15" width="15" style="fill: rgb(153, 153, 153);"></rect><text class="label" transform="translate( 25, 12.5)"> Filter residues (disposal)</text></g><g class="cell" transform="translate(0, 583)" style="opacity: 1;"><rect class="swatch" height="15" width="15" style="fill: rgb(141, 211, 199);"></rect><text class="label" transform="translate( 25, 12.5)"> Inert chemical waste (disposal)</text></g></g></g></svg>